<?xml version="1.0" standalone="no"?>
<!DOCTYPE svg PUBLIC "-//W3C//DTD SVG 20010904//EN"
 "http://www.w3.org/TR/2001/REC-SVG-20010904/DTD/svg10.dtd">
<svg version="1.0" xmlns="http://www.w3.org/2000/svg"
 width="600.000000pt" height="600.000000pt" viewBox="0 0 600.000000 600.000000"
 preserveAspectRatio="xMidYMid meet">

<g transform="translate(0.000000,600.000000) scale(0.100000,-0.100000)"
fill="#000000" stroke="none">
<path d="M2650 5919 c-19 -4 -91 -18 -160 -29 -148 -25 -185 -33 -265 -54
-111 -30 -170 -49 -179 -58 -6 -4 -18 -8 -27 -8 -10 0 -32 -8 -51 -17 -60 -30
-68 -33 -81 -33 -8 0 -44 -16 -81 -35 -37 -19 -74 -35 -82 -35 -8 0 -14 -4
-14 -10 0 -5 -6 -10 -14 -10 -17 0 -80 -32 -84 -42 -2 -5 -8 -8 -13 -8 -6 0
-35 -16 -65 -35 -30 -19 -57 -35 -59 -35 -23 0 -313 -211 -405 -294 -138 -126
-330 -332 -419 -451 -94 -126 -181 -257 -181 -274 0 -5 -6 -14 -14 -20 -8 -7
-29 -42 -46 -79 -98 -204 -128 -270 -138 -297 -31 -90 -65 -182 -72 -200 -7
-19 -28 -94 -51 -190 -6 -22 -14 -53 -19 -70 -4 -16 -15 -82 -24 -145 -10 -63
-22 -135 -27 -161 -13 -59 -13 -600 0 -658 6 -26 17 -93 26 -151 9 -58 20
-121 25 -140 5 -19 16 -64 25 -100 28 -114 41 -159 48 -166 4 -4 7 -14 7 -23
0 -13 13 -51 60 -176 4 -11 19 -45 33 -75 14 -30 41 -89 60 -130 91 -199 287
-491 439 -656 117 -127 275 -276 374 -354 82 -65 297 -210 311 -210 3 0 20
-10 37 -23 37 -27 316 -167 334 -167 6 0 12 -4 12 -10 0 -5 9 -10 20 -10 18 0
37 -6 107 -36 17 -8 38 -14 46 -14 9 0 19 -4 22 -10 3 -5 15 -10 26 -10 10 0
27 -4 37 -9 9 -5 46 -17 82 -26 61 -16 85 -21 178 -44 20 -5 89 -17 152 -26
63 -9 144 -21 180 -27 75 -12 527 -4 635 10 39 6 111 18 160 27 50 9 107 19
128 22 20 3 40 9 43 14 3 5 15 9 26 9 20 0 110 24 153 40 11 4 43 15 70 23 74
24 124 42 131 50 4 4 14 7 23 7 13 0 251 112 326 153 141 77 368 234 486 337
109 94 331 322 397 407 71 92 186 257 203 292 8 14 27 49 44 76 43 70 162 318
183 380 15 43 62 176 71 200 8 19 21 69 43 160 5 22 12 57 15 78 3 20 9 40 14
43 5 3 9 19 9 36 0 17 6 68 14 112 34 195 38 253 33 496 -3 135 -10 272 -15
305 -6 33 -17 101 -26 150 -21 125 -30 166 -59 275 -25 96 -32 118 -47 155
-17 40 -60 161 -60 167 0 3 -27 63 -60 133 -33 70 -60 128 -60 131 0 3 -73
127 -117 199 -7 11 -15 27 -19 35 -17 35 -209 282 -284 365 -143 159 -314 309
-493 435 -70 48 -141 94 -157 102 -17 7 -30 16 -30 20 0 5 -5 8 -12 8 -6 0
-19 6 -27 14 -24 21 -190 106 -206 106 -8 0 -15 5 -15 10 0 6 -6 10 -12 10 -7
0 -38 12 -68 27 -30 14 -64 30 -75 34 -44 15 -111 42 -127 50 -10 5 -25 9 -33
9 -8 0 -23 4 -33 9 -15 8 -71 24 -187 52 -22 6 -53 14 -70 19 -16 4 -82 16
-145 25 -63 9 -134 20 -158 26 -52 11 -633 10 -682 -2z m525 -1373 c83 -14 98
-19 180 -57 171 -79 306 -252 354 -452 15 -63 13 -209 -3 -277 -48 -201 -216
-403 -372 -448 -31 -9 -281 -12 -977 -12 l-937 0 -5 23 c-3 12 -4 96 -3 187
l3 165 914 5 913 5 29 34 c62 75 82 164 59 261 -25 103 -152 200 -261 200 -95
0 -198 -61 -241 -144 -19 -36 -21 -38 -56 -31 -20 4 -102 10 -182 14 l-145 6
-3 37 c-4 50 58 183 122 260 65 80 195 169 291 201 42 13 163 35 205 36 19 0
71 -5 115 -13z m1232 -577 c149 -21 265 -75 369 -172 84 -79 143 -169 181
-279 21 -62 25 -92 26 -193 1 -130 -16 -206 -71 -310 -27 -52 -128 -185 -140
-185 -4 0 -22 -13 -41 -29 -19 -16 -58 -41 -87 -55 l-53 -26 -1776 0 -1775 0
2 188 3 187 1729 3 1730 2 24 23 c13 12 36 47 51 77 59 123 21 269 -90 346
-108 75 -244 62 -350 -33 -21 -19 -39 -40 -39 -47 0 -6 -9 -22 -19 -35 -18
-24 -19 -24 -66 -7 -35 11 -84 16 -177 16 -146 0 -149 2 -129 73 45 160 186
322 345 396 90 42 117 49 268 70 4 1 42 -4 85 -10z m-293 -1425 c195 -50 342
-188 403 -377 27 -83 31 -234 9 -309 -57 -185 -211 -339 -391 -389 -68 -18
-248 -18 -305 1 -115 37 -229 125 -298 228 -71 106 -92 176 -92 301 l0 94 53
-8 c28 -4 113 -10 187 -13 l135 -7 3 -62 c3 -59 6 -65 51 -115 l49 -53 70 1
c60 0 75 4 106 28 48 36 66 74 66 141 0 73 -31 124 -94 154 l-46 21 -1080 0
-1080 0 0 183 c0 101 3 187 7 190 3 4 497 7 1096 7 963 0 1096 -2 1151 -16z"/>
</g>
</svg>
