<?xml version="1.0" standalone="no"?>
<!DOCTYPE svg PUBLIC "-//W3C//DTD SVG 20010904//EN"
 "http://www.w3.org/TR/2001/REC-SVG-20010904/DTD/svg10.dtd">
<svg version="1.0" xmlns="http://www.w3.org/2000/svg"
 width="512.000000pt" height="512.000000pt" viewBox="0 0 512.000000 512.000000"
 preserveAspectRatio="xMidYMid meet">

<g transform="translate(0.000000,512.000000) scale(0.100000,-0.100000)"
fill="#000000" stroke="none">
<path d="M1715 5097 c-95 -32 -133 -62 -351 -279 -241 -240 -267 -274 -287
-391 -8 -48 -8 -81 0 -126 8 -41 146 -364 438 -1021 343 -772 426 -965 420
-987 -3 -14 -33 -54 -65 -87 l-59 -61 -129 128 c-167 165 -158 165 -299 24
-75 -75 -103 -110 -103 -128 0 -13 16 -85 35 -159 19 -74 31 -138 27 -141 -4
-4 -254 -181 -557 -393 -605 -426 -655 -467 -719 -597 -88 -179 -88 -355 0
-538 63 -129 146 -212 275 -275 183 -88 359 -88 538 0 130 64 171 114 597 719
212 303 389 553 393 557 3 4 67 -8 141 -27 74 -19 146 -35 159 -35 18 0 53 28
128 103 141 141 141 132 -24 299 l-127 128 116 118 c129 129 163 184 181 287
8 46 8 80 0 124 -8 41 -146 364 -438 1021 -348 782 -426 965 -420 987 8 33
186 217 226 233 33 14 75 2 105 -31 17 -18 15 -22 -54 -93 -40 -41 -81 -94
-92 -117 -26 -58 -26 -140 1 -199 15 -35 183 -208 724 -750 l704 -705 3 -225
3 -225 34 -63 c38 -70 70 -101 145 -140 44 -22 63 -26 136 -26 95 1 130 13
205 70 l48 36 113 -113 113 -113 3 -425 3 -426 27 -51 c40 -76 70 -107 140
-145 58 -31 70 -34 148 -33 69 0 94 5 135 24 64 31 124 91 155 155 22 46 25
64 28 233 2 100 6 182 8 182 3 0 19 -8 37 -17 51 -28 188 -24 252 7 63 31 124
91 155 155 l25 50 0 645 0 645 -27 45 c-15 25 -347 365 -765 782 -568 568
-748 742 -783 757 -65 30 -143 28 -209 -5 l-53 -27 -287 286 c-311 311 -331
327 -431 327 -77 0 -129 -27 -216 -112 l-74 -71 -89 86 c-122 119 -187 150
-326 154 -63 2 -115 -2 -140 -10z m244 -172 c31 -15 84 -55 127 -97 l75 -72
-58 -58 -57 -58 -36 34 c-55 53 -96 70 -170 70 -47 0 -76 -6 -105 -21 -49 -26
-266 -245 -291 -293 -11 -23 -18 -58 -18 -100 0 -64 6 -77 421 -1010 231 -520
425 -960 431 -979 16 -47 15 -89 -5 -147 -13 -39 -40 -73 -127 -162 l-110
-113 -58 58 -58 57 69 71 c88 89 105 122 105 205 0 64 -6 77 -421 1010 -231
520 -425 960 -431 979 -16 47 -15 89 5 147 14 42 44 78 202 237 244 247 269
265 391 266 49 1 78 -5 119 -24z m938 -337 l303 -303 0 -685 0 -685 -645 645
c-607 607 -645 647 -645 680 0 32 21 56 307 342 287 287 310 308 343 308 32 0
56 -21 337 -302z m1321 -1001 l742 -743 -2 -611 c-3 -600 -3 -612 -24 -639
-39 -53 -71 -69 -134 -69 -90 0 -144 49 -159 145 -13 83 -76 117 -132 71 l-24
-19 -5 -330 c-5 -314 -6 -332 -26 -358 -39 -53 -71 -69 -134 -69 -63 0 -95 16
-134 69 -21 27 -21 39 -26 809 -4 585 -8 789 -17 809 -7 16 -31 48 -53 72 -88
95 -226 101 -324 15 -73 -65 -80 -88 -86 -296 -4 -163 -7 -184 -26 -209 -39
-53 -71 -69 -134 -69 -63 0 -95 16 -134 69 -21 27 -21 35 -24 1035 l-2 1008
21 26 c15 21 29 27 57 27 36 0 65 -28 780 -743z m-243 -972 l25 -24 0 -238 0
-238 -80 80 -80 80 0 158 c0 154 1 158 25 182 15 16 36 25 55 25 19 0 40 -9
55 -25z m-2110 -755 l340 -340 -36 -35 -35 -36 -147 37 c-86 21 -157 34 -171
30 -18 -4 -131 -157 -453 -613 -467 -661 -469 -664 -601 -713 -354 -133 -705
218 -572 572 49 132 52 134 713 601 458 323 609 435 613 453 4 15 -9 85 -30
171 l-37 146 33 34 c17 18 34 33 38 33 3 0 158 -153 345 -340z"/>
<path d="M565 951 c-92 -24 -173 -90 -215 -176 -19 -41 -24 -66 -24 -135 -1
-78 2 -90 33 -148 38 -70 70 -100 145 -140 43 -22 64 -26 136 -26 72 0 93 4
136 26 75 40 107 70 145 140 31 58 34 70 33 148 0 72 -4 93 -26 136 -39 75
-70 107 -137 143 -65 34 -164 49 -226 32z m138 -165 c103 -43 128 -177 48
-257 -65 -65 -157 -65 -222 0 -124 123 13 325 174 257z"/>
<path d="M4245 631 c-92 -24 -173 -90 -215 -176 -19 -41 -24 -66 -24 -135 -1
-78 2 -90 33 -148 38 -70 70 -100 145 -140 43 -22 64 -26 136 -26 72 0 93 4
136 26 75 40 107 70 145 140 31 58 34 70 33 148 0 72 -4 93 -26 136 -39 75
-70 107 -137 143 -65 34 -164 49 -226 32z m138 -165 c103 -43 128 -177 48
-257 -65 -65 -157 -65 -222 0 -124 123 13 325 174 257z"/>
</g>
</svg>
