<?xml version="1.0" standalone="no"?>
<!DOCTYPE svg PUBLIC "-//W3C//DTD SVG 20010904//EN"
 "http://www.w3.org/TR/2001/REC-SVG-20010904/DTD/svg10.dtd">
<svg version="1.0" xmlns="http://www.w3.org/2000/svg"
 width="512.000000pt" height="512.000000pt" viewBox="0 0 512.000000 512.000000"
 preserveAspectRatio="xMidYMid meet">

<g transform="translate(0.000000,512.000000) scale(0.100000,-0.100000)"
fill="#000000" stroke="none">
<path d="M3155 5049 c-39 -11 -201 -174 -210 -212 -9 -33 10 -82 39 -102 11
-8 38 -15 60 -15 37 0 47 7 138 98 87 87 98 102 98 134 0 66 -62 114 -125 97z"/>
<path d="M3967 5030 c-34 -27 -44 -78 -23 -118 19 -37 44 -52 86 -52 42 0 67
15 86 52 34 65 -11 138 -86 138 -22 0 -48 -8 -63 -20z"/>
<path d="M4669 4881 c-39 -40 -40 -89 -1 -132 49 -55 139 -35 162 35 32 97
-88 169 -161 97z"/>
<path d="M1898 4093 c-715 -714 -714 -714 -752 -842 -20 -68 -21 -185 -1 -260
28 -110 68 -165 257 -357 174 -177 178 -182 178 -224 0 -38 -6 -48 -67 -112
-38 -39 -349 -322 -693 -630 -344 -307 -648 -585 -676 -618 -52 -61 -88 -126
-120 -215 -28 -80 -26 -259 5 -354 48 -147 156 -274 292 -346 90 -47 167 -66
274 -67 137 -1 250 35 364 116 25 17 296 319 604 671 308 352 583 664 611 694
74 78 123 111 163 111 31 0 52 -17 216 -178 241 -236 312 -275 491 -274 98 1
171 20 255 68 66 38 1388 1361 1393 1394 2 14 2 36 0 50 -3 18 -294 316 -985
1009 -540 541 -1000 996 -1021 1012 -26 19 -51 29 -75 29 -34 0 -69 -33 -713
-677z m669 -31 c-258 -259 -263 -266 -257 -327 5 -52 60 -87 120 -77 16 3 117
96 283 261 l257 255 140 -139 140 -140 -249 -250 c-137 -137 -254 -260 -260
-272 -38 -76 32 -159 117 -138 17 4 119 98 282 261 l256 254 139 -140 140
-140 -252 -253 c-139 -138 -257 -265 -263 -281 -23 -63 25 -126 97 -126 35 0
50 13 298 260 l260 260 143 -142 142 -143 -260 -260 c-247 -248 -260 -263
-260 -298 0 -21 7 -49 16 -62 19 -28 74 -49 106 -40 13 4 139 123 281 263
l257 257 108 -108 107 -107 -490 -490 c-269 -270 -494 -490 -500 -490 -6 0
-422 412 -925 915 l-915 915 495 495 495 495 105 -105 105 -105 -258 -258z
m703 -2554 c-77 -71 -146 -101 -230 -101 -114 0 -153 25 -358 227 -107 104
-195 183 -222 196 -28 14 -70 25 -110 27 -90 7 -158 -20 -239 -94 l-63 -56
-211 211 -211 211 61 64 c69 74 93 130 93 217 0 112 -15 136 -216 341 -104
106 -192 205 -205 230 -15 30 -24 68 -27 120 -4 67 -1 84 21 133 14 31 50 81
78 112 l53 55 920 -921 921 -921 -55 -51z m-1360 51 c0 -11 -1020 -1172 -1056
-1202 -47 -39 -135 -78 -199 -86 -263 -36 -492 197 -448 455 13 74 51 154 97
203 17 18 289 265 605 548 l574 515 213 -213 c118 -118 214 -217 214 -220z"/>
<path d="M1304 1510 c-32 -13 -567 -566 -582 -601 -39 -94 77 -170 157 -103
17 14 150 149 296 299 253 261 265 276 265 312 -1 73 -69 120 -136 93z"/>
<path d="M477 679 c-22 -13 -47 -61 -47 -93 0 -33 43 -82 77 -89 41 -8 89 17
108 54 34 64 -14 139 -87 139 -18 0 -41 -5 -51 -11z"/>
<path d="M3538 4602 c-161 -161 -168 -169 -168 -208 0 -22 7 -49 15 -60 20
-29 69 -48 102 -39 35 8 330 298 349 342 29 67 -20 133 -99 133 -27 0 -53 -21
-199 -168z"/>
<path d="M4103 4317 c-301 -300 -313 -314 -313 -350 0 -56 43 -97 101 -97 l43
0 308 308 308 308 0 43 c0 58 -41 101 -97 101 -36 0 -50 -12 -350 -313z"/>
<path d="M4990 4343 c-78 -30 -90 -142 -19 -178 103 -54 199 75 116 154 -24
22 -72 34 -97 24z"/>
<path d="M4710 4062 c-38 -6 -486 -457 -493 -497 -12 -70 54 -135 121 -119 34
9 464 433 487 481 13 27 14 40 5 68 -6 18 -17 38 -25 45 -19 16 -66 26 -95 22z"/>
<path d="M4833 3344 c-18 -9 -68 -54 -113 -100 -73 -77 -80 -87 -80 -125 0
-78 77 -122 148 -85 38 20 169 158 182 191 32 83 -57 160 -137 119z"/>
</g>
</svg>
