<?xml version="1.0" standalone="no"?>
<!DOCTYPE svg PUBLIC "-//W3C//DTD SVG 20010904//EN"
 "http://www.w3.org/TR/2001/REC-SVG-20010904/DTD/svg10.dtd">
<svg version="1.0" xmlns="http://www.w3.org/2000/svg"
 width="512.000000pt" height="512.000000pt" viewBox="0 0 512.000000 512.000000"
 preserveAspectRatio="xMidYMid meet">

<g transform="translate(0.000000,512.000000) scale(0.100000,-0.100000)"
fill="#000000" stroke="none">
<path d="M3030 5113 c-292 -30 -573 -165 -785 -378 -201 -201 -331 -456 -367
-726 l-12 -87 -73 -4 c-64 -3 -76 -7 -100 -31 l-28 -27 0 -280 0 -280 27 -26
c19 -20 39 -28 77 -32 l51 -5 2 -848 3 -849 27 -27 c41 -41 100 -39 139 5 l29
32 0 845 0 845 540 0 540 0 0 -1159 0 -1159 -62 14 c-115 27 -200 78 -319 191
-60 56 -120 106 -134 109 -46 11 -75 -6 -183 -109 -120 -115 -190 -157 -308
-187 -98 -25 -200 -25 -298 0 -118 30 -188 72 -308 187 -59 56 -119 105 -133
109 -46 11 -75 -6 -183 -109 -120 -115 -190 -157 -308 -187 -98 -25 -200 -25
-298 0 -115 29 -189 73 -296 176 -52 50 -106 98 -120 107 -39 27 -78 21 -116
-17 -61 -61 -43 -108 89 -232 133 -125 246 -190 407 -236 27 -7 102 -12 185
-12 83 0 158 5 185 12 148 42 253 99 367 200 l63 54 63 -54 c114 -101 219
-158 367 -200 59 -16 311 -16 370 0 148 42 253 99 368 200 l62 54 63 -54 c114
-101 219 -158 367 -200 59 -16 311 -16 370 0 148 42 253 99 368 200 l62 54 63
-54 c114 -101 219 -158 367 -200 59 -16 311 -16 370 0 161 46 274 111 407 236
132 124 150 171 89 232 -38 38 -77 44 -116 17 -14 -9 -68 -57 -120 -107 -107
-103 -181 -147 -296 -176 -98 -25 -200 -25 -298 0 -118 30 -188 72 -308 187
-108 103 -137 120 -183 109 -14 -4 -74 -53 -133 -109 -111 -105 -183 -152
-279 -181 l-53 -15 0 1155 0 1154 40 0 c21 0 51 5 65 12 51 23 55 45 55 328 0
328 0 327 -122 339 l-57 6 17 35 c24 49 86 108 141 134 45 21 59 21 633 26
l588 5 27 28 c41 40 39 99 -5 138 l-32 29 -568 0 c-625 0 -641 -2 -755 -62
-113 -61 -197 -160 -238 -282 l-18 -51 -502 -3 -502 -2 6 53 c48 403 362 773
761 896 163 50 182 51 1233 51 l983 0 32 29 c27 24 33 36 33 71 0 35 -6 47
-33 71 l-32 29 -993 -2 c-545 0 -1008 -3 -1027 -5z m230 -1533 l0 -140 -700 0
-700 0 0 140 0 140 700 0 700 0 0 -140z"/>
<path d="M4985 4311 c-64 -27 -81 -110 -32 -158 20 -21 37 -28 67 -28 116 0
130 170 15 190 -16 2 -39 1 -50 -4z"/>
<path d="M2293 2928 c-69 -18 -68 -13 -68 -494 0 -421 1 -433 21 -460 39 -53
105 -56 150 -7 l24 26 0 442 0 442 -25 26 c-30 29 -58 36 -102 25z"/>
<path d="M2693 2928 c-63 -16 -68 -34 -71 -303 -4 -280 -1 -314 35 -349 39
-39 102 -37 137 5 l26 31 0 282 0 283 -25 26 c-30 29 -58 36 -102 25z"/>
<path d="M2658 1885 c-32 -32 -38 -62 -38 -197 0 -133 13 -172 65 -194 29 -12
44 -13 70 -4 58 19 65 41 65 209 0 146 -1 150 -26 180 -35 41 -98 44 -136 6z"/>
<path d="M1885 1271 c-61 -25 -80 -108 -36 -155 79 -84 207 4 159 109 -20 44
-76 65 -123 46z"/>
<path d="M649 491 c-23 -23 -29 -39 -29 -70 0 -37 7 -48 72 -117 175 -184 332
-269 546 -296 158 -20 342 15 481 93 60 34 161 111 200 153 l25 26 40 -38
c133 -126 265 -196 429 -227 184 -35 386 -1 546 91 53 31 155 110 190 148 l25
26 40 -38 c193 -183 427 -265 668 -234 214 27 371 112 546 296 65 69 72 80 72
117 0 55 -42 99 -95 99 -32 0 -47 -10 -118 -78 -117 -111 -165 -147 -238 -182
-166 -77 -352 -77 -518 0 -73 35 -121 71 -238 182 -112 107 -124 107 -236 0
-156 -148 -220 -188 -355 -223 -96 -24 -188 -24 -284 0 -135 35 -199 75 -355
223 -112 107 -124 107 -236 0 -117 -111 -165 -147 -238 -182 -166 -77 -352
-77 -518 0 -73 35 -121 71 -238 182 -71 68 -86 78 -118 78 -27 0 -44 -8 -66
-29z"/>
</g>
</svg>
