<?xml version="1.0" standalone="no"?>
<!DOCTYPE svg PUBLIC "-//W3C//DTD SVG 20010904//EN"
 "http://www.w3.org/TR/2001/REC-SVG-20010904/DTD/svg10.dtd">
<svg version="1.0" xmlns="http://www.w3.org/2000/svg"
 width="100.000000pt" height="100.000000pt" viewBox="0 0 100.000000 100.000000"
 preserveAspectRatio="xMidYMid meet">

<g transform="translate(0.000000,100.000000) scale(0.100000,-0.100000)"
fill="#000000" stroke="none">
<path d="M393 985 c-252 -55 -426 -311 -384 -562 34 -201 178 -357 376 -408
306 -78 615 167 615 488 0 228 -171 434 -399 483 -80 17 -127 17 -208 -1z
m445 -487 l-3 -73 -179 -3 c-153 -2 -181 0 -188 13 -5 8 -16 15 -23 15 -8 0
-15 5 -15 10 0 6 -26 10 -59 10 -33 0 -63 5 -66 10 -3 6 -35 10 -70 10 -64 0
-93 13 -55 25 11 3 21 14 21 23 1 14 2 13 6 -2 5 -18 12 -18 107 -13 94 6 156
22 156 40 0 4 83 7 185 7 l186 0 -3 -72z"/>
</g>
</svg>
